<?xml version="1.0" encoding="utf-8"?>
<svg xmlns="http://www.w3.org/2000/svg" viewBox="0 0 24 24" fill="currentColor">
    <path transform="translate(1.5,1.5)" style="stroke-width:1.00886583"
                d="M 2.332 0 C 1.0407 0 0 1.0406 0 2.332 V 18.6679 C 0 19.9595 1.0407 21 2.332 21 H 18.6679 C 19.9593 21 21 19.9595 21 18.6679 V 2.332 C 21 1.0406 19.9593 0 18.6679 0 Z M 7.749 6.8115 C 8.0928 6.8115 8.4306 6.8427 8.7627 6.9053 C 9.0987 6.9639 9.4326 7.0537 9.7647 7.1748 V 8.8857 C 9.4795 8.6904 9.1925 8.546 8.9032 8.4522 C 8.6181 8.3585 8.3213 8.3115 8.0127 8.3115 C 7.4268 8.3115 6.9697 8.4834 6.6415 8.8272 C 6.3174 9.1669 6.1553 9.6435 6.1553 10.2569 C 6.1553 10.87 6.3174 11.3487 6.6415 11.6924 C 6.9697 12.0322 7.4268 12.2022 8.0127 12.2022 C 8.3407 12.2022 8.6514 12.1533 8.9444 12.0556 C 9.2412 11.958 9.5146 11.8134 9.7647 11.622 V 13.3389 C 9.4365 13.4599 9.1026 13.5498 8.7627 13.6085 C 8.4267 13.6708 8.0889 13.7022 7.749 13.7022 C 6.5654 13.7022 5.6397 13.3994 4.9716 12.7939 C 4.3037 12.1845 3.9698 11.3388 3.9698 10.2569 C 3.9698 9.1747 4.3037 8.331 4.9716 7.7256 C 5.6397 7.1162 6.5654 6.8115 7.749 6.8115 Z M 14.874 6.8115 C 15.2178 6.8115 15.5556 6.8427 15.8877 6.9053 C 16.2237 6.9639 16.5576 7.0537 16.8897 7.1748 V 8.8857 C 16.6045 8.6904 16.3175 8.546 16.0282 8.4522 C 15.7431 8.3585 15.4462 8.3115 15.1377 8.3115 C 14.5518 8.3115 14.0947 8.4834 13.7665 8.8272 C 13.4424 9.1669 13.2803 9.6435 13.2803 10.2569 C 13.2803 10.87 13.4424 11.3487 13.7665 11.6924 C 14.0947 12.0322 14.5518 12.2022 15.1377 12.2022 C 15.4657 12.2022 15.7764 12.1533 16.0694 12.0556 C 16.3662 11.958 16.6396 11.8134 16.8897 11.622 V 13.3389 C 16.5615 13.4599 16.2276 13.5498 15.8877 13.6085 C 15.5517 13.6708 15.2139 13.7022 14.874 13.7022 C 13.6903 13.7022 12.7647 13.3994 12.0966 12.7939 C 11.4287 12.1845 11.0947 11.3388 11.0947 10.2569 C 11.0947 9.1747 11.4287 8.331 12.0966 7.7256 C 12.7647 7.1162 13.6903 6.8115 14.874 6.8115 Z" />
</svg>