<?xml version="1.0" encoding="utf-8"?>
<svg xmlns="http://www.w3.org/2000/svg" viewBox="0 0 24 24" fill="currentColor">
    <path transform="translate(0,5.4)" d="M 2.28 6.75 C 2.28 4.4415 3.948 2.565 6 2.565 H 10.8 V 0 H 6 C 2.688 0 0 3.024 0 6.75 C 0 10.476 2.688 13.5 6 13.5 H 10.8 V 10.935 H 6 C 3.948 10.935 2.28 9.0585 2.28 6.75 Z M 7.2 8.1 h 9.6 V 5.4 H 7.2 Z M 18 0 H 13.2 V 2.565 H 18 c 2.052 0 3.72 1.8765 3.72 4.185 c 0 2.3085 -1.668 4.185 -3.72 4.185 H 13.2 V 13.5 H 18 C 21.312 13.5 24 10.476 24 6.75 C 24 3.024 21.312 0 18 0 Z" />
</svg>
