<?xml version="1.0" encoding="utf-8"?>
<svg xmlns="http://www.w3.org/2000/svg" viewBox="0 0 24 24" fill="currentColor">
    <path transform="translate(1.3,1.7)"
                d="M 20.5256 0 A 1.1371 1.0803 90 0 1 21.6059 1.1372 V 9.0972 H 18.6379 V 3.0134 H 2.833 V 17.4852 H 8.6423 V 20.4687 H 1.0803 A 1.1371 1.0803 90 0 1 0 19.3316 V 1.1372 A 1.1371 1.0803 90 0 1 1.0803 0 H 20.5256 Z M 20.5256 11.3715 A 1.1371 1.0803 90 0 1 21.6059 12.5087 V 19.3316 A 1.1371 1.0803 90 0 1 20.5256 20.4687 H 11.8832 A 1.1371 1.0803 90 0 1 10.8029 19.3316 V 12.5087 A 1.1371 1.0803 90 0 1 11.8832 11.3715 H 20.5256 Z" />
</svg>
