<?xml version="1.0" encoding="utf-8"?>
<svg xmlns="http://www.w3.org/2000/svg" viewBox="0 0 24 24" fill="currentColor">
    <path transform="translate(1.5,1.5)" d="M 18.666 0 H 2.3325 C 1.0375 0 -0.0009 1.05 -0.0009 2.3334 v 16.3335 c 0 1.2834 1.0383 2.3334 2.3334 2.3334 h 16.3335 c 1.2834 0 2.3334 -1.05 2.3334 -2.3334 V 2.3334 C 20.9994 1.0501 19.9494 0 18.666 0 Z M 9.3327 13.9999 H 7.5827 V 11.6666 H 5.2492 V 13.9999 H 3.4992 V 6.9999 H 5.2492 V 9.9165 H 7.5827 V 6.9999 H 9.3327 Z M 11.6661 6.9999 h 4.6666 c 0.6417 0 1.1667 0.525 1.1667 1.1667 v 4.6666 c 0 0.6417 -0.525 1.1667 -1.1667 1.1667 H 11.6661 v -7 z m 1.7501 5.25 h 2.3334 V 8.75 H 13.4162 Z" />
</svg>
