<?xml version="1.0" encoding="utf-8"?>
<svg xmlns="http://www.w3.org/2000/svg" viewBox="0 0 24 24" fill="currentColor">
    <path transform="translate(1.5,1.5)" d="M 18.666 0 H 2.3325 C 1.0375 0 -0.0009 1.05 -0.0009 2.3334 V 18.6669 C -0.0009 19.9503 1.0374 21.0003 2.3325 21.0003 H 18.666 C 19.9494 21.0003 20.9994 19.9503 20.9994 18.6669 V 2.3334 C 20.9994 1.05 19.9494 0 18.666 0 Z M 9.3327 13.9999 H 3.4992 V 12.339 H 7.704 V 11.1045 H 3.4992 V 7 H 9.342 V 8.3985 H 5.004 V 9.612 H 9.342 Z M 11.6661 6.9999 H 16.3328 C 16.9745 6.9999 17.4994 7.5249 17.4994 8.1666 V 12.8332 C 17.4994 13.4749 16.9745 13.9999 16.3328 13.9999 H 11.6661 V 6.9999 Z M 13.4162 12.2499 H 15.7496 V 8.75 H 13.4162 Z" />
</svg>
