<?xml version="1.0" encoding="utf-8"?>
<svg xmlns="http://www.w3.org/2000/svg" viewBox="0 0 24 24" fill="currentColor">
    <path transform="translate(2.4,2.5)"
                d="M 17.2872 10.7604 C 17.3275 10.4468 17.3578 10.1332 17.3578 9.8 C 17.3578 9.4668 17.3275 9.1532 17.2872 8.8396 L 19.413 7.2226 C 19.6045 7.0756 19.6547 6.811 19.5339 6.5954 L 17.5189 3.2046 C 17.3981 2.989 17.1261 2.9106 16.9043 2.989 l -2.5087 0.98 C 13.8718 3.577 13.3076 3.2536 12.693 3.0086 L 12.3101 0.4116 C 12.2799 0.1764 12.0683 0 11.8164 0 H 7.7864 C 7.5345 0 7.323 0.1764 7.2927 0.4116 L 6.9099 3.0086 C 6.2953 3.2536 5.7311 3.5868 5.2072 3.969 l -2.5087 -0.98 C 2.4668 2.9008 2.2049 2.989 2.084 3.2046 l -2.015 3.3908 c -0.131 0.2156 -0.0705 0.4802 0.1209 0.6272 l 2.1258 1.617 C 2.2753 9.1532 2.2451 9.4766 2.2451 9.8 c 0 0.3234 0.0302 0.6468 0.0705 0.9604 l -2.1258 1.617 c -0.1914 0.147 -0.2418 0.4116 -0.1209 0.6272 l 2.015 3.3908 c 0.1209 0.2156 0.3929 0.294 0.6146 0.2156 l 2.5087 -0.98 c 0.5239 0.392 1.0881 0.7154 1.7027 0.9604 l 0.3828 2.597 C 7.323 19.4236 7.5345 19.6 7.7864 19.6 h 4.03 c 0.2519 0 0.4635 -0.1764 0.4937 -0.4116 L 12.693 16.5914 c 0.6146 -0.245 1.1788 -0.5782 1.7027 -0.9604 l 2.5087 0.98 c 0.2317 0.0882 0.4938 0 0.6146 -0.2156 L 19.5339 13.0046 C 19.6547 12.789 19.6045 12.5244 19.413 12.3774 Z M 9.8015 13.23 C 7.8571 13.23 6.2754 11.6914 6.2754 9.8 C 6.2754 7.9086 7.8571 6.37 9.8015 6.37 C 11.746 6.37 13.3277 7.9086 13.3277 9.8 C 13.3277 11.6914 11.746 13.23 9.8015 13.23 Z" />
</svg>
