<?xml version="1.0" encoding="utf-8"?>
<svg xmlns="http://www.w3.org/2000/svg" viewBox="0 0 24 24" fill="currentColor">
    <path transform="translate(0,0)" d="m 17.85 11.9 c 0 -2.3404 -1.3486 -4.3501 -3.3055 -5.3285 V 9.4935 L 17.7839 12.733 C 17.8235 12.4686 17.85 12.1909 17.85 11.9 Z m 3.3055 0 c 0 1.2429 -0.2645 2.4065 -0.714 3.4906 l 1.9965 1.9965 C 23.3108 15.7476 23.8 13.8834 23.8 11.9 C 23.8 6.2409 19.8465 1.5074 14.5445 0.3041 V 3.0279 C 18.3656 4.165 21.1555 7.7085 21.1555 11.9 Z M 1.6787 0 L -0.0004 1.6792 L 6.2537 7.9332 H -0.0004 v 7.9332 h 5.2889 l 6.6111 6.6112 V 13.579 l 5.6195 5.6195 c -0.8859 0.6875 -1.8775 1.2298 -2.975 1.5603 v 2.7237 c 1.8246 -0.4098 3.4775 -1.2561 4.879 -2.3932 l 2.6974 2.7105 l 1.6792 -1.6792 l -11.9 -11.9 L 1.6787 -0.0001 Z m 10.2208 1.3222 l -2.7635 2.7635 l 2.7635 2.7635 z" />
</svg>
