<?xml version="1.0" encoding="utf-8"?>
<svg xmlns="http://www.w3.org/2000/svg" viewBox="0 0 24 24" fill="currentColor">
    <path transform="translate(2,0.5)"
                d="M 13.0666 0 H 6.5332 V 2.1333 H 13.0666 Z M 8.7111 13.8667 H 10.8889 V 7.4668 H 8.7111 Z M 17.4549 6.816 L 19.0011 5.3014 C 18.5329 4.7574 18.0211 4.2454 17.4658 3.7974 L 15.9195 5.312 C 14.2318 3.9893 12.1085 3.2 9.8 3.2 C 4.3882 3.2 0 7.4987 0 12.8001 C 0 18.1013 4.3774 22.4 9.8 22.4 C 15.2226 22.4 19.6 18.1013 19.6 12.8001 C 19.6 10.5388 18.7942 8.4587 17.4549 6.816 Z M 9.8 20.2667 C 5.586 20.2667 2.1778 16.928 2.1778 12.8001 C 2.1778 8.672 5.586 5.3334 9.8 5.3334 c 4.214 0 7.6222 3.3387 7.6222 7.4666 c 0 4.1279 -3.4082 7.4666 -7.6222 7.4666 z" />
</svg>
