<?xml version="1.0" encoding="utf-8"?>
<svg xmlns="http://www.w3.org/2000/svg" viewBox="0 0 216 48">
    <g>
        <use transform="translate(0,0)" href="#rect" width="24" height="24" />
        <use transform="translate(24,0)" href="#rect" width="24" height="24" />
        <use transform="translate(48,0)" href="#rect" width="24" height="24" />
        <use transform="translate(72,0)" href="#rect" width="24" height="24" />
        <use transform="translate(96,0)" href="#rect" width="24" height="24" />
        <use transform="translate(120,0)" href="#rect" width="24" height="24" />
        <use transform="translate(144,0)" href="#rect" width="24" height="24" />
        <use transform="translate(168,0)" href="#rect" width="24" height="24" />
        <use transform="translate(192,0)" href="#rect" width="24" height="24" />


        <use transform="translate(0,24)" href="#rect" width="24" height="24" />
        <use transform="translate(24,24)" href="#rect" width="24" height="24" />
        <use transform="translate(48,24)" href="#rect" width="24" height="24" />
        <use transform="translate(72,24)" href="#rect" width="24" height="24" />
        <use transform="translate(96,24)" href="#rect" width="24" height="24" />
        <use transform="translate(120,24)" href="#rect" width="24" height="24" />
        <use transform="translate(144,24)" href="#rect" width="24" height="24" />
        <use transform="translate(168,24)" href="#rect" width="24" height="24" />
        <use transform="translate(192,24)" href="#rect" width="24" height="24" />

        <use transform="translate(0,0)" href="#more" width="24" height="24" />
        <use transform="translate(24,0)" href="#loop" width="24" height="24" />
        <use transform="translate(48,0)" href="#gif" width="24" height="24" />
        <use transform="translate(72,0)" href="#windowed-fs" width="24" height="24" />
        <use transform="translate(96,0)" href="#skip-forward" width="24" height="24" />
        <use transform="translate(120,0)" href="#skip-backward" width="24" height="24" />
    </g>
    <defs>
        <symbol id="rect" viewBox="0 0 24 24" stroke="currentColor">
            <rect x="0" y="0" width="24" height="24" fill="none" stroke-width="0.1"></rect>
        </symbol>

        <symbol id="more" viewBox="0 0 512 512" stroke="currentColor" fill="currentColor">
            <circle cx="256" cy="256" r="26" />
            <circle cx="346" cy="256" r="26" />
            <circle cx="166" cy="256" r="26" />
            <path d="M448,256c0-106-86-192-192-192S64,150,64,256s86,192,192,192S448,362,448,256Z"
                stroke="currentColor" style="fill:none;stroke-width:48px" />
        </symbol>
        <symbol id="loop" viewBox="0 0 32 32" fill="currentColor">
            <path d="M 25 21.225 c 0 0.8071 -0.333 1.135 -1 1.135 h -16 v -3.8575 l -4.688 5.6725 l 4.625 5.5963 l 0.063 -3.7813 h 18 c 1.104 0 2 -1.0842 2 -2.42 v -10.4108 l -3 3.63 v 4.4359 z M 7 11.395 c 0 -0.8071 0.333 -1.135 1 -1.135 h 16 v 3.8575 l 4.688 -5.6725 l -4.625 -5.5963 l -0.063 3.7813 h -18 c -1.104 0 -2 1.0842 -2 2.42 v 10.4108 l 3 -3.63 v -4.4359 z"></path>
        </symbol>

        <symbol id="gif" viewBox="0 0 24 24" fill="currentColor">
            <!-- Uploaded to: SVG Repo, www.svgrepo.com by Microsoft, MIT License -->
            <path d="M 18.75 3.5005 C 20.5449 3.5005 22 4.9556 22 6.7505 L 22 17.2531 C 22 19.048 20.5449 20.5031 18.75 20.5031 L 5.25 20.5031 C 3.4551 20.5031 2 19.048 2 17.2531 L 2 6.7505 C 2 4.9556 3.4551 3.5005 5.25 3.5005 L 18.75 3.5005 Z M 8.0146 8.8719 C 6.3884 8.8719 5.261 10.2817 5.261 11.9943 C 5.261 13.7076 6.3886 15.1203 8.0146 15.1203 C 8.9024 15.1203 9.7177 14.6932 10.1263 13.9064 L 10.2025 13.7442 L 10.226 13.6745 L 10.244 13.5999 L 10.244 13.5999 L 10.2516 13.5169 L 10.2518 11.9962 L 10.245 11.9038 C 10.2054 11.6359 9.9957 11.4235 9.7292 11.3795 L 9.6268 11.3712 L 8.6252 11.3712 L 8.5329 11.378 C 8.265 11.4177 8.0525 11.6273 8.0086 11.8938 L 8.0002 11.9962 L 8.007 12.0886 C 8.0467 12.3564 8.2563 12.5689 8.5228 12.6128 L 8.6252 12.6212 L 9.001 12.6209 L 9.001 13.3549 L 8.9948 13.3695 C 8.8061 13.6904 8.4432 13.8703 8.0146 13.8703 C 7.1487 13.8703 6.511 13.0713 6.511 11.9943 C 6.511 10.9183 7.1479 10.1219 8.0146 10.1219 C 8.436 10.1219 8.6758 10.1681 8.9757 10.3121 C 9.2868 10.4616 9.6602 10.3304 9.8096 10.0193 C 9.959 9.7081 9.8279 9.3348 9.5168 9.1853 C 9.0335 8.9533 8.6115 8.8719 8.0146 8.8719 Z M 12.6289 8.9939 C 12.3151 8.9939 12.0554 9.2252 12.0107 9.5266 L 12.0039 9.6189 L 12.0039 14.3811 L 12.0107 14.4734 C 12.0554 14.7748 12.3151 15.0061 12.6289 15.0061 C 12.9427 15.0061 13.2025 14.7748 13.2472 14.4734 L 13.2539 14.3811 L 13.2539 9.6189 L 13.2472 9.5266 C 13.2025 9.2252 12.9427 8.9939 12.6289 8.9939 Z M 17.6222 9.0008 L 15.6248 8.9939 C 15.311 8.9929 15.0504 9.2232 15.0047 9.5244 L 14.9976 9.6168 L 14.9976 14.365 L 15.0044 14.4573 C 15.0441 14.7252 15.2537 14.9377 15.5202 14.9816 L 15.6226 14.99 L 15.715 14.9832 C 15.9829 14.9435 16.1953 14.7338 16.2393 14.4673 L 16.2476 14.365 L 16.247 13.2499 L 17.37 13.2504 L 17.4624 13.2436 C 17.7303 13.2039 17.9427 12.9943 17.9867 12.7278 L 17.995 12.6254 L 17.9882 12.533 C 17.9485 12.2651 17.7389 12.0527 17.4724 12.0087 L 17.37 12.0004 L 16.247 11.9999 L 16.247 10.2449 L 17.6178 10.2508 L 17.7102 10.2444 C 18.0118 10.2008 18.2439 9.9418 18.245 9.628 C 18.2461 9.3142 18.0157 9.0536 17.7145 9.0079 L 17.6222 9.0008 L 15.6248 8.9939 L 17.6222 9.0008 Z"></path>
        </symbol>

        <symbol id="windowed-fs" viewBox="1.3 1.3 21 21" fill="currentColor">
            <path d="M 4.4 3.7 H 19.25 C 20.6 3.7 21.95 5.05 21.95 6.4 V 17.2 C 21.95 18.55 20.6 19.9 19.25 19.9 H 4.4 C 3.05 19.9 1.7 18.55 1.7 17.2 V 6.4 C 1.7 5.05 3.05 3.7 4.4 3.7 M 19.25 6.4 H 4.4 V 17.2 H 19.25 V 6.4"/>
        </symbol>

        <symbol id="skip-forward" viewBox="0 0 24 24" fill="currentColor">
            <path
                d="M18,13c0,3.31-2.69,6-6,6s-6-2.69-6-6s2.69-6,6-6v4l5-5l-5-5v4c-4.42,0-8,3.58-8,8c0,4.42,3.58,8,8,8s8-3.58,8-8H18z"/>
            <polygon points="10.9,16 10.9,11.73 10.81,11.73 9.04,12.36 9.04,13.05 10.05,12.74 10.05,16"/>
            <path
                d="M14.32,11.78c-0.18-0.07-0.37-0.1-0.59-0.1s-0.41,0.03-0.59,0.1s-0.33,0.18-0.45,0.33s-0.23,0.34-0.29,0.57 s-0.1,0.5-0.1,0.82v0.74c0,0.32,0.04,0.6,0.11,0.82s0.17,0.42,0.3,0.57s0.28,0.26,0.46,0.33s0.37,0.1,0.59,0.1s0.41-0.03,0.59-0.1 s0.33-0.18,0.45-0.33s0.22-0.34,0.29-0.57s0.1-0.5,0.1-0.82V13.5c0-0.32-0.04-0.6-0.11-0.82s-0.17-0.42-0.3-0.57 S14.49,11.85,14.32,11.78z M14.33,14.35c0,0.19-0.01,0.35-0.04,0.48s-0.06,0.24-0.11,0.32s-0.11,0.14-0.19,0.17 s-0.16,0.05-0.25,0.05s-0.18-0.02-0.25-0.05s-0.14-0.09-0.19-0.17s-0.09-0.19-0.12-0.32s-0.04-0.29-0.04-0.48v-0.97 c0-0.19,0.01-0.35,0.04-0.48s0.06-0.23,0.12-0.31s0.11-0.14,0.19-0.17s0.16-0.05,0.25-0.05s0.18,0.02,0.25,0.05 s0.14,0.09,0.19,0.17s0.09,0.18,0.12,0.31s0.04,0.29,0.04,0.48V14.35z"/>
        </symbol>

        <symbol id="skip-backward" viewBox="0 0 24 24" fill="currentColor">
            <path
            d="M11.99 5V1l-5 5 5 5V7c3.31 0 6 2.69 6 6s-2.69 6-6 6-6-2.69-6-6h-2c0 4.42 3.58 8 8 8s8-3.58 8-8-3.58-8-8-8zm-1.1 11h-.85v-3.26l-1.01.31v-.69l1.77-.63h.09V16zm4.28-1.76c0 .32-.03.6-.1.82s-.17.42-.29.57-.28.26-.45.33-.37.1-.59.1-.41-.03-.59-.1-.33-.18-.46-.33-.23-.34-.3-.57-.11-.5-.11-.82v-.74c0-.32.03-.6.1-.82s.17-.42.29-.57.28-.26.45-.33.37-.1.59-.1.41.03.59.1.33.18.46.33.23.34.3.57.11.5.11.82v.74zm-.85-.86c0-.19-.01-.35-.04-.48s-.07-.23-.12-.31-.11-.14-.19-.17-.16-.05-.25-.05-.18.02-.25.05-.14.09-.19.17-.09.18-.12.31-.04.29-.04.48v.97c0 .19.01.35.04.48s.07.24.12.32.11.14.19.17.16.05.25.05.18-.02.25-.05.14-.09.19-.17.09-.19.11-.32.04-.29.04-.48v-.97z"/>
        </symbol>
    </defs>
</svg>