<?xml version="1.0" encoding="utf-8"?>
<svg xmlns="http://www.w3.org/2000/svg" viewBox="0 0 216 48">
  <g>
    <use transform="translate(0,0)" href="#rect" width="24" height="24"/>
    <use transform="translate(24,0)" href="#rect" width="24" height="24"/>
    <use transform="translate(48,0)" href="#rect" width="24" height="24"/>
    <use transform="translate(72,0)" href="#rect" width="24" height="24"/>
    <use transform="translate(96,0)" href="#rect" width="24" height="24"/>
    <use transform="translate(120,0)" href="#rect" width="24" height="24"/>
    <use transform="translate(144,0)" href="#rect" width="24" height="24"/>
    <use transform="translate(168,0)" href="#rect" width="24" height="24"/>
    <use transform="translate(192,0)" href="#rect" width="24" height="24"/>
    <use transform="translate(0,24)" href="#rect" width="24" height="24"/>
    <use transform="translate(24,24)" href="#rect" width="24" height="24"/>
    <use transform="translate(48,24)" href="#rect" width="24" height="24"/>
    <use transform="translate(72,24)" href="#rect" width="24" height="24"/>
    <use transform="translate(96,24)" href="#rect" width="24" height="24"/>
    <use transform="translate(120,24)" href="#rect" width="24" height="24"/>
    <use transform="translate(144,24)" href="#rect" width="24" height="24"/>
    <use transform="translate(168,24)" href="#rect" width="24" height="24"/>
    <use transform="translate(192,24)" href="#rect" width="24" height="24"/>
    <use transform="translate(0,0)" href="#more" width="24" height="24"/>
    <use transform="translate(24,0)" href="#loop" width="24" height="24"/>
    <use transform="translate(48,0)" href="#gif" width="24" height="24"/>
    <use transform="translate(72,0)" href="#windowed-fs" width="24" height="24"/>
    <use transform="translate(96,0)" href="#skip-forward" width="24" height="24"/>
    <use transform="translate(120,0)" href="#skip-backward" width="24" height="24"/>
    <use transform="translate(144,0)" href="#cinema" width="24" height="24"/>
    <use transform="translate(0,24)" href="#quality-sd" width="24" height="24"/>
    <use transform="translate(24,24)" href="#quality-hd" width="24" height="24"/>
    <use transform="translate(48,24)" href="#quality-fhd" width="24" height="24"/>
    <use transform="translate(72,24)" href="#quality-2k" width="24" height="24"/>
    <use transform="translate(96,24)" href="#quality-4k" width="24" height="24"/>
    <use transform="translate(120,24)" href="#quality-8k" width="24" height="24"/>
  </g>
  <defs>
    <symbol id="rect" viewBox="0 0 24 24" stroke="currentColor">
      <rect x="0" y="0" width="24" height="24" fill="none" stroke-width="0.1"/>
    </symbol>
    <symbol id="more" viewBox="0 0 512 512" stroke="currentColor" fill="currentColor">
      <circle cx="256" cy="256" r="26"/>
      <circle cx="346" cy="256" r="26"/>
      <circle cx="166" cy="256" r="26"/>
      <path d="M448,256c0-106-86-192-192-192S64,150,64,256s86,192,192,192S448,362,448,256Z" stroke="currentColor" style="fill:none;stroke-width:48px"/>
    </symbol>
    <symbol id="loop" viewBox="0 0 32 32" fill="currentColor">
      <path d="M 25 21.225 c 0 0.8071 -0.333 1.135 -1 1.135 h -16 v -3.8575 l -4.688 5.6725 l 4.625 5.5963 l 0.063 -3.7813 h 18 c 1.104 0 2 -1.0842 2 -2.42 v -10.4108 l -3 3.63 v 4.4359 z M 7 11.395 c 0 -0.8071 0.333 -1.135 1 -1.135 h 16 v 3.8575 l 4.688 -5.6725 l -4.625 -5.5963 l -0.063 3.7813 h -18 c -1.104 0 -2 1.0842 -2 2.42 v 10.4108 l 3 -3.63 v -4.4359 z"/>
    </symbol>
    <symbol id="gif" viewBox="0 0 24 24" fill="currentColor">
<!--Uploaded to: SVG Repo, www.svgrepo.com by Microsoft, MIT License-->
      <path d="M 18.75 3.5005 C 20.5449 3.5005 22 4.9556 22 6.7505 L 22 17.2531 C 22 19.048 20.5449 20.5031 18.75 20.5031 L 5.25 20.5031 C 3.4551 20.5031 2 19.048 2 17.2531 L 2 6.7505 C 2 4.9556 3.4551 3.5005 5.25 3.5005 L 18.75 3.5005 Z M 8.0146 8.8719 C 6.3884 8.8719 5.261 10.2817 5.261 11.9943 C 5.261 13.7076 6.3886 15.1203 8.0146 15.1203 C 8.9024 15.1203 9.7177 14.6932 10.1263 13.9064 L 10.2025 13.7442 L 10.226 13.6745 L 10.244 13.5999 L 10.244 13.5999 L 10.2516 13.5169 L 10.2518 11.9962 L 10.245 11.9038 C 10.2054 11.6359 9.9957 11.4235 9.7292 11.3795 L 9.6268 11.3712 L 8.6252 11.3712 L 8.5329 11.378 C 8.265 11.4177 8.0525 11.6273 8.0086 11.8938 L 8.0002 11.9962 L 8.007 12.0886 C 8.0467 12.3564 8.2563 12.5689 8.5228 12.6128 L 8.6252 12.6212 L 9.001 12.6209 L 9.001 13.3549 L 8.9948 13.3695 C 8.8061 13.6904 8.4432 13.8703 8.0146 13.8703 C 7.1487 13.8703 6.511 13.0713 6.511 11.9943 C 6.511 10.9183 7.1479 10.1219 8.0146 10.1219 C 8.436 10.1219 8.6758 10.1681 8.9757 10.3121 C 9.2868 10.4616 9.6602 10.3304 9.8096 10.0193 C 9.959 9.7081 9.8279 9.3348 9.5168 9.1853 C 9.0335 8.9533 8.6115 8.8719 8.0146 8.8719 Z M 12.6289 8.9939 C 12.3151 8.9939 12.0554 9.2252 12.0107 9.5266 L 12.0039 9.6189 L 12.0039 14.3811 L 12.0107 14.4734 C 12.0554 14.7748 12.3151 15.0061 12.6289 15.0061 C 12.9427 15.0061 13.2025 14.7748 13.2472 14.4734 L 13.2539 14.3811 L 13.2539 9.6189 L 13.2472 9.5266 C 13.2025 9.2252 12.9427 8.9939 12.6289 8.9939 Z M 17.6222 9.0008 L 15.6248 8.9939 C 15.311 8.9929 15.0504 9.2232 15.0047 9.5244 L 14.9976 9.6168 L 14.9976 14.365 L 15.0044 14.4573 C 15.0441 14.7252 15.2537 14.9377 15.5202 14.9816 L 15.6226 14.99 L 15.715 14.9832 C 15.9829 14.9435 16.1953 14.7338 16.2393 14.4673 L 16.2476 14.365 L 16.247 13.2499 L 17.37 13.2504 L 17.4624 13.2436 C 17.7303 13.2039 17.9427 12.9943 17.9867 12.7278 L 17.995 12.6254 L 17.9882 12.533 C 17.9485 12.2651 17.7389 12.0527 17.4724 12.0087 L 17.37 12.0004 L 16.247 11.9999 L 16.247 10.2449 L 17.6178 10.2508 L 17.7102 10.2444 C 18.0118 10.2008 18.2439 9.9418 18.245 9.628 C 18.2461 9.3142 18.0157 9.0536 17.7145 9.0079 L 17.6222 9.0008 L 15.6248 8.9939 L 17.6222 9.0008 Z"/>
    </symbol>
    <symbol id="windowed-fs" viewBox="1.3 1.3 21 21" fill="currentColor">
      <path d="M 4.4 3.7 H 19.25 C 20.6 3.7 21.95 5.05 21.95 6.4 V 17.2 C 21.95 18.55 20.6 19.9 19.25 19.9 H 4.4 C 3.05 19.9 1.7 18.55 1.7 17.2 V 6.4 C 1.7 5.05 3.05 3.7 4.4 3.7 M 19.25 6.4 H 4.4 V 17.2 H 19.25 V 6.4"/>
    </symbol>
    <symbol id="skip-forward" viewBox="0 0 24 24" fill="currentColor">
      <path d="M18,13c0,3.31-2.69,6-6,6s-6-2.69-6-6s2.69-6,6-6v4l5-5l-5-5v4c-4.42,0-8,3.58-8,8c0,4.42,3.58,8,8,8s8-3.58,8-8H18z"/>
    </symbol>
    <symbol id="skip-backward" viewBox="0 0 24 24" fill="currentColor">
      <path d="M11.99 5V1l-5 5 5 5V7c3.31 0 6 2.69 6 6s-2.69 6-6 6-6-2.69-6-6h-2c0 4.42 3.58 8 8 8s8-3.58 8-8-3.58-8-8-8z"/>
    </symbol>
    <symbol id="cinema" viewBox="0 0 32 32" fill="currentColor">
      <path d="M27 31H5c-1.1 0-2-.9-2-2V16h26v13c0 1.1-.9 2-2 2M23.5 1.1 2.8 8.7c-1 .4-1.6 1.5-1.2 2.6L3 15l24.4-8.9L26 2.3c-.3-1-1.5-1.5-2.5-1.2M3 21h26"/>
    </symbol>
<!--Many thanks to Nvertd for making these awesome quality icons!-->
    <symbol id="quality-sd" viewBox="0 0 24 24" fill="currentColor">
      <path d="M 1.505 3.991 C 1.505 2.616 2.622 1.5 3.996 1.5 L 20.014 1.5 C 21.389 1.5 22.506 2.616 22.506 3.991 L 22.506 20.009 C 22.506 21.384 21.389 22.5 20.014 22.5 L 3.996 22.5 C 2.622 22.5 1.505 21.384 1.505 20.009 L 1.505 3.991 Z M 12.671 15.666 L 15.646 15.666 C 16.696 15.666 17.548 15.324 18.203 14.64 C 18.862 13.952 19.191 13.061 19.191 11.965 C 19.191 11.005 18.885 10.16 18.273 9.43 C 17.661 8.699 16.739 8.334 15.507 8.334 L 12.671 8.334 L 12.671 15.666 Z M 14.921 13.979 L 14.921 9.999 L 15.507 9.999 C 15.937 9.999 16.264 10.193 16.49 10.579 C 16.719 10.966 16.834 11.426 16.834 11.96 C 16.834 12.583 16.705 13.075 16.447 13.437 C 16.193 13.798 15.879 13.979 15.507 13.979 L 14.921 13.979 Z M 4.819 13.544 C 5.238 15.034 6.341 15.779 8.128 15.779 C 9.106 15.779 9.895 15.549 10.497 15.091 C 11.098 14.629 11.399 14.028 11.399 13.286 C 11.399 12.817 11.275 12.411 11.028 12.067 C 10.781 11.72 10.473 11.475 10.105 11.331 C 9.736 11.188 9.113 11.023 8.235 10.837 C 7.917 10.769 7.702 10.698 7.591 10.622 C 7.48 10.547 7.424 10.441 7.424 10.305 C 7.424 10.001 7.67 9.849 8.16 9.849 C 8.751 9.849 9.143 10.094 9.337 10.585 L 11.2 10.021 C 10.72 8.821 9.734 8.221 8.241 8.221 C 7.256 8.221 6.501 8.451 5.974 8.909 C 5.451 9.367 5.19 9.942 5.19 10.633 C 5.19 11.17 5.373 11.637 5.738 12.035 C 6.103 12.432 6.928 12.755 8.214 13.002 C 8.551 13.07 8.783 13.149 8.912 13.238 C 9.045 13.324 9.111 13.446 9.111 13.603 C 9.111 13.904 8.828 14.054 8.262 14.054 C 7.535 14.054 7.084 13.759 6.909 13.168 L 4.819 13.544 Z"/>
    </symbol>
    <symbol id="quality-hd" viewBox="0 0 24 24" fill="currentColor">
      <path d="M 1.505 3.991 C 1.505 2.616 2.622 1.5 3.996 1.5 L 20.014 1.5 C 21.389 1.5 22.506 2.616 22.506 3.991 L 22.506 20.009 C 22.506 21.384 21.389 22.5 20.014 22.5 L 3.996 22.5 C 2.622 22.5 1.505 21.384 1.505 20.009 L 1.505 3.991 Z M 11.012 8.334 L 8.762 8.334 L 8.762 11.031 L 7.043 11.031 L 7.043 8.334 L 4.793 8.334 L 4.793 15.666 L 7.043 15.666 L 7.043 12.814 L 8.762 12.814 L 8.762 15.666 L 11.012 15.666 L 11.012 8.334 Z M 12.698 15.666 L 15.673 15.666 C 16.722 15.666 17.575 15.324 18.23 14.64 C 18.889 13.952 19.218 13.061 19.218 11.965 C 19.218 11.005 18.912 10.16 18.3 9.43 C 17.688 8.699 16.765 8.334 15.534 8.334 L 12.698 8.334 L 12.698 15.666 Z M 14.948 13.979 L 14.948 9.999 L 15.534 9.999 C 15.963 9.999 16.291 10.193 16.517 10.579 C 16.746 10.966 16.86 11.426 16.86 11.96 C 16.86 12.583 16.731 13.075 16.474 13.437 C 16.219 13.798 15.906 13.979 15.534 13.979 L 14.948 13.979 Z"/>
    </symbol>
    <symbol id="quality-fhd" viewBox="0 0 24 24" fill="currentColor">
      <path d="M 1.5 3.991 C 1.5 2.616 2.616 1.5 3.991 1.5 L 20.009 1.5 C 21.384 1.5 22.5 2.616 22.5 3.991 L 22.5 20.009 C 22.5 21.384 21.384 22.5 20.009 22.5 L 3.991 22.5 C 2.616 22.5 1.5 21.384 1.5 20.009 L 1.5 3.991 Z M 14.989 15.666 L 17.535 15.666 C 18.433 15.666 19.162 15.324 19.723 14.64 C 20.287 13.952 20.568 13.061 20.568 11.965 C 20.568 11.005 20.307 10.16 19.783 9.43 C 19.259 8.699 18.47 8.334 17.416 8.334 L 14.989 8.334 L 14.989 15.666 Z M 16.915 13.979 L 16.915 9.999 L 17.416 9.999 C 17.784 9.999 18.064 10.193 18.257 10.579 C 18.453 10.966 18.551 11.426 18.551 11.96 C 18.551 12.583 18.441 13.075 18.22 13.437 C 18.003 13.798 17.735 13.979 17.416 13.979 L 16.915 13.979 Z M 7.352 12.921 L 7.352 11.272 L 5.307 11.272 L 5.307 10.08 L 7.967 10.08 L 7.967 8.334 L 3.432 8.334 L 3.432 15.666 L 5.307 15.666 L 5.307 12.921 L 7.352 12.921 Z M 13.9 8.334 L 11.975 8.334 L 11.975 11.031 L 10.504 11.031 L 10.504 8.334 L 8.579 8.334 L 8.579 15.666 L 10.504 15.666 L 10.504 12.814 L 11.975 12.814 L 11.975 15.666 L 13.9 15.666 L 13.9 8.334 Z"/>
    </symbol>
    <symbol id="quality-2k" viewBox="0 0 24 24" fill="currentColor">
      <path d="M 1.505 3.991 C 1.505 2.616 2.622 1.5 3.996 1.5 L 20.014 1.5 C 21.389 1.5 22.506 2.616 22.506 3.991 L 22.506 20.009 C 22.506 21.384 21.389 22.5 20.014 22.5 L 3.996 22.5 C 2.622 22.5 1.505 21.384 1.505 20.009 L 1.505 3.991 Z M 18.899 15.722 L 16.6 11.071 L 18.453 8.391 L 16.433 8.391 L 14.408 11.42 L 14.408 8.391 L 12.287 8.391 L 12.287 15.722 L 14.408 15.722 L 14.408 14.03 L 15.166 12.951 L 16.433 15.722 L 18.899 15.722 Z M 10.779 13.923 L 7.921 13.923 C 9.25 13.046 10.05 12.394 10.322 11.968 C 10.598 11.542 10.736 11.092 10.736 10.62 C 10.736 9.911 10.483 9.343 9.978 8.917 C 9.477 8.491 8.829 8.278 8.034 8.278 C 7.3 8.278 6.663 8.489 6.122 8.912 C 5.585 9.331 5.248 9.972 5.112 10.834 L 6.965 11.194 C 7.03 10.349 7.33 9.927 7.868 9.927 C 8.082 9.927 8.256 9.998 8.389 10.142 C 8.521 10.281 8.587 10.467 8.587 10.7 C 8.587 10.944 8.51 11.176 8.356 11.398 C 8.206 11.62 7.88 11.939 7.379 12.354 C 6.881 12.766 6.541 13.035 6.358 13.16 L 5.112 14.036 L 5.112 15.722 L 10.698 15.722 L 10.779 13.923 Z"/>
    </symbol>
    <symbol id="quality-4k" viewBox="0 0 24 24" fill="currentColor">
      <path d="M 1.505 3.991 C 1.505 2.616 2.622 1.5 3.996 1.5 L 20.014 1.5 C 21.389 1.5 22.506 2.616 22.506 3.991 L 22.506 20.009 C 22.506 21.384 21.389 22.5 20.014 22.5 L 3.996 22.5 C 2.622 22.5 1.505 21.384 1.505 20.009 L 1.505 3.991 Z M 18.923 15.722 L 16.624 11.071 L 18.477 8.391 L 16.458 8.391 L 14.433 11.42 L 14.433 8.391 L 12.311 8.391 L 12.311 15.722 L 14.433 15.722 L 14.433 14.03 L 15.19 12.951 L 16.458 15.722 L 18.923 15.722 Z M 11.136 14.111 L 11.136 12.516 L 10.105 12.516 L 10.105 8.278 L 7.849 8.278 L 5.088 12.516 L 5.088 14.111 L 8.085 14.111 L 8.085 15.722 L 10.105 15.722 L 10.105 14.111 L 11.136 14.111 Z M 8.085 12.516 L 6.694 12.516 L 8.085 10.324 L 8.085 12.516 Z"/>
    </symbol>
    <symbol id="quality-8k" viewBox="0 0 24 24" fill="currentColor">
      <path d="M 1.505 3.991 C 1.505 2.616 2.622 1.5 3.996 1.5 L 20.014 1.5 C 21.389 1.5 22.506 2.616 22.506 3.991 L 22.506 20.009 C 22.506 21.384 21.389 22.5 20.014 22.5 L 3.996 22.5 C 2.622 22.5 1.505 21.384 1.505 20.009 L 1.505 3.991 Z M 9.858 11.68 C 10.262 11.412 10.52 11.163 10.631 10.934 C 10.746 10.701 10.803 10.45 10.803 10.182 C 10.803 9.591 10.552 9.117 10.051 8.759 C 9.553 8.4 8.909 8.221 8.117 8.221 C 7.233 8.221 6.54 8.438 6.039 8.871 C 5.541 9.301 5.292 9.836 5.292 10.477 C 5.292 11.204 5.598 11.738 6.211 12.078 C 5.448 12.414 5.067 12.968 5.067 13.738 C 5.067 14.346 5.315 14.839 5.813 15.215 C 6.311 15.591 7.023 15.779 7.951 15.779 C 8.878 15.779 9.625 15.58 10.191 15.182 C 10.76 14.785 11.045 14.221 11.045 13.49 C 11.045 12.685 10.649 12.081 9.858 11.68 Z M 7.484 12.814 L 8.316 13.131 C 8.735 13.292 8.944 13.512 8.944 13.791 C 8.944 13.96 8.869 14.097 8.719 14.205 C 8.568 14.309 8.352 14.361 8.069 14.361 C 7.718 14.361 7.448 14.285 7.258 14.135 C 7.068 13.985 6.973 13.798 6.973 13.576 C 6.973 13.276 7.143 13.021 7.484 12.814 Z M 8.488 11.116 L 7.817 10.843 C 7.458 10.699 7.279 10.488 7.279 10.209 C 7.279 10.058 7.34 9.931 7.462 9.827 C 7.587 9.724 7.759 9.672 7.978 9.672 C 8.286 9.672 8.524 9.745 8.692 9.892 C 8.86 10.035 8.944 10.218 8.944 10.44 C 8.944 10.74 8.792 10.966 8.488 11.116 Z M 18.944 15.666 L 16.646 11.014 L 18.499 8.334 L 16.479 8.334 L 14.454 11.364 L 14.454 8.334 L 12.333 8.334 L 12.333 15.666 L 14.454 15.666 L 14.454 13.974 L 15.211 12.894 L 16.479 15.666 L 18.944 15.666 Z"/>
    </symbol>
  </defs>
</svg>
