<?xml version="1.0" encoding="utf-8"?>
<svg xmlns="http://www.w3.org/2000/svg" viewBox="0 0 216 48">
    <g>
        <use transform="translate(0,0)" href="#rect" width="24" height="24" />
        <use transform="translate(24,0)" href="#rect" width="24" height="24" />
        <use transform="translate(48,0)" href="#rect" width="24" height="24" />
        <use transform="translate(72,0)" href="#rect" width="24" height="24" />
        <use transform="translate(96,0)" href="#rect" width="24" height="24" />
        <use transform="translate(120,0)" href="#rect" width="24" height="24" />
        <use transform="translate(144,0)" href="#rect" width="24" height="24" />
        <use transform="translate(168,0)" href="#rect" width="24" height="24" />
        <use transform="translate(192,0)" href="#rect" width="24" height="24" />


        <use transform="translate(0,24)" href="#rect" width="24" height="24" />
        <use transform="translate(24,24)" href="#rect" width="24" height="24" />
        <use transform="translate(48,24)" href="#rect" width="24" height="24" />
        <use transform="translate(72,24)" href="#rect" width="24" height="24" />
        <use transform="translate(96,24)" href="#rect" width="24" height="24" />
        <use transform="translate(120,24)" href="#rect" width="24" height="24" />
        <use transform="translate(144,24)" href="#rect" width="24" height="24" />
        <use transform="translate(168,24)" href="#rect" width="24" height="24" />
        <use transform="translate(192,24)" href="#rect" width="24" height="24" />

        <use transform="translate(0,0)" href="#play" width="24" height="24" />
        <use transform="translate(24,0)" href="#pause" width="24" height="24" />

        <use transform="translate(48,0)" href="#speaker" width="24" height="24" />
        <use transform="translate(72,0)" href="#speaker-muted" width="24" height="24" />

        <use transform="translate(96,0)" href="#fullscreen" width="24" height="24" />
        <use transform="translate(120,0)" href="#fullscreen-out" width="24" height="24" />
        <use transform="translate(144,0)" href="#previous" width="24" height="24" />
        <use transform="translate(168,0)" href="#next" width="24" height="24" />
        <use transform="translate(192,0)" href="#photo" width="24" height="24" />

        <use transform="translate(0,24)" href="#pip" width="24" height="24" />
        <use transform="translate(24,24)" href="#link" style="color:#f2c94c" width="24" height="24" />
        <use transform="translate(48,24)" href="#gear" width="24" height="24" />
        <use transform="translate(72,24)" href="#timer" width="24" height="24" />
        <use transform="translate(96,24)" href="#download" width="24" height="24" />
       <use transform="translate(120,24)" href="#hourglass" width="24" height="24" />
        <use transform="translate(144,24)" href="#soundwave" width="24" height="24" />
        <use transform="translate(168,24)" href="#captions" width="24" height="24" />
        <use transform="translate(192,24)" href="#language" width="24" height="24" />
    </g>
    <defs>
        <symbol id="speaker" viewBox="0 0 24 24" fill="currentColor">
            <path transform="translate(0,0)"
                d="m 0 7.8294 v 8.1413 H 5.2889 L 11.9 22.7552 V 1.0454 L 5.2889 7.8299 H 0 Z M 17.85 11.9 c 0 -2.4017 -1.3486 -4.4642 -3.3055 -5.4683 v 10.9229 C 16.5014 16.3642 17.85 14.3017 17.85 11.9 Z M 14.5445 0 v 2.7952 c 3.8212 1.1669 6.6111 4.8034 6.6111 9.1048 c 0 4.3014 -2.7899 7.9379 -6.6111 9.1048 V 23.8 C 19.8465 22.5652 23.8 17.7075 23.8 11.9 C 23.8 6.0925 19.8465 1.2348 14.5445 0 Z" />
        </symbol>
        <symbol id="speaker-muted" viewBox="0 0 24 24" fill="currentColor">
            <path transform="translate(0,0)"
                d="m 17.85 11.9 c 0 -2.3404 -1.3486 -4.3501 -3.3055 -5.3285 V 9.4935 L 17.7839 12.733 C 17.8235 12.4686 17.85 12.1909 17.85 11.9 Z m 3.3055 0 c 0 1.2429 -0.2645 2.4065 -0.714 3.4906 l 1.9965 1.9965 C 23.3108 15.7476 23.8 13.8834 23.8 11.9 C 23.8 6.2409 19.8465 1.5074 14.5445 0.3041 V 3.0279 C 18.3656 4.165 21.1555 7.7085 21.1555 11.9 Z M 1.6787 0 L -0.0004 1.6792 L 6.2537 7.9332 H -0.0004 v 7.9332 h 5.2889 l 6.6111 6.6112 V 13.579 l 5.6195 5.6195 c -0.8859 0.6875 -1.8775 1.2298 -2.975 1.5603 v 2.7237 c 1.8246 -0.4098 3.4775 -1.2561 4.879 -2.3932 l 2.6974 2.7105 l 1.6792 -1.6792 l -11.9 -11.9 L 1.6787 -0.0001 Z m 10.2208 1.3222 l -2.7635 2.7635 l 2.7635 2.7635 z" />
        </symbol>
        <symbol id="play" viewBox="0 0 24 24" fill="currentColor">
            <path transform="translate(3,0)" d="M 0 0 V 23.8 L 18.2 11.9 Z" />
        </symbol>
        <symbol id="pause" viewBox="0 0 24 24" fill="currentColor">
            <path transform="translate(3,0)" d="M 0 23.8 H 6.0666 V 0 H 0 Z M 12.1334 0 V 23.8 H 18.2 V 0 Z" />
        </symbol>
        <symbol id="fullscreen-out" viewBox="0 0 24 24" fill="currentColor">
            <path transform="translate(1.5,1.5)"
                d="m 0 16.5 h 4.5 v 4.5 H 7.5 V 13.5 H 0 Z M 4.5 4.5 H 0 V 7.5 H 7.5 V 0 H 4.5 Z m 9 16.5 h 3 v -4.5 h 4.5 V 13.5 H 13.5 Z M 16.5 4.5 V 0 H 13.5 v 7.5 h 7.5 V 4.5 Z" />
        </symbol>
        <symbol id="link" viewBox="0 0 24 24" fill="currentColor">
            <path transform="translate(0,5.4)"
                d="M 2.28 6.75 C 2.28 4.4415 3.948 2.565 6 2.565 H 10.8 V 0 H 6 C 2.688 0 0 3.024 0 6.75 C 0 10.476 2.688 13.5 6 13.5 H 10.8 V 10.935 H 6 C 3.948 10.935 2.28 9.0585 2.28 6.75 Z M 7.2 8.1 h 9.6 V 5.4 H 7.2 Z M 18 0 H 13.2 V 2.565 H 18 c 2.052 0 3.72 1.8765 3.72 4.185 c 0 2.3085 -1.668 4.185 -3.72 4.185 H 13.2 V 13.5 H 18 C 21.312 13.5 24 10.476 24 6.75 C 24 3.024 21.312 0 18 0 Z" />
        </symbol>
        <symbol id="fullscreen" viewBox="0 0 24 24" fill="currentColor">
            <path transform="translate(1.5,1.5)"
                d="M 3 13.5 H 0 v 7.5 H 7.5 V 18 H 3 Z M 0 7.5 H 3 V 3 H 7.5 V 0 H 0 Z m 18 10.5 H 13.5 v 3 h 7.5 V 13.5 H 18 Z M 13.5 0 v 3 h 4.5 v 4.5 h 3 V 0 Z" />
        </symbol>
        <symbol id="gear" viewBox="0 0 24 24" fill="currentColor">
            <path transform="translate(2.4,2.5)"
                d="M 17.2872 10.7604 C 17.3275 10.4468 17.3578 10.1332 17.3578 9.8 C 17.3578 9.4668 17.3275 9.1532 17.2872 8.8396 L 19.413 7.2226 C 19.6045 7.0756 19.6547 6.811 19.5339 6.5954 L 17.5189 3.2046 C 17.3981 2.989 17.1261 2.9106 16.9043 2.989 l -2.5087 0.98 C 13.8718 3.577 13.3076 3.2536 12.693 3.0086 L 12.3101 0.4116 C 12.2799 0.1764 12.0683 0 11.8164 0 H 7.7864 C 7.5345 0 7.323 0.1764 7.2927 0.4116 L 6.9099 3.0086 C 6.2953 3.2536 5.7311 3.5868 5.2072 3.969 l -2.5087 -0.98 C 2.4668 2.9008 2.2049 2.989 2.084 3.2046 l -2.015 3.3908 c -0.131 0.2156 -0.0705 0.4802 0.1209 0.6272 l 2.1258 1.617 C 2.2753 9.1532 2.2451 9.4766 2.2451 9.8 c 0 0.3234 0.0302 0.6468 0.0705 0.9604 l -2.1258 1.617 c -0.1914 0.147 -0.2418 0.4116 -0.1209 0.6272 l 2.015 3.3908 c 0.1209 0.2156 0.3929 0.294 0.6146 0.2156 l 2.5087 -0.98 c 0.5239 0.392 1.0881 0.7154 1.7027 0.9604 l 0.3828 2.597 C 7.323 19.4236 7.5345 19.6 7.7864 19.6 h 4.03 c 0.2519 0 0.4635 -0.1764 0.4937 -0.4116 L 12.693 16.5914 c 0.6146 -0.245 1.1788 -0.5782 1.7027 -0.9604 l 2.5087 0.98 c 0.2317 0.0882 0.4938 0 0.6146 -0.2156 L 19.5339 13.0046 C 19.6547 12.789 19.6045 12.5244 19.413 12.3774 Z M 9.8015 13.23 C 7.8571 13.23 6.2754 11.6914 6.2754 9.8 C 6.2754 7.9086 7.8571 6.37 9.8015 6.37 C 11.746 6.37 13.3277 7.9086 13.3277 9.8 C 13.3277 11.6914 11.746 13.23 9.8015 13.23 Z" />
        </symbol>
        <symbol id="download" viewBox="0 0 24 24" fill="currentColor">
            <path transform="translate(3.5,1.4)"
                d="M 17.1 7.5441 H 12.2142 V 0 H 4.8856 V 7.5441 H -0.0001 l 8.55 8.8015 l 8.55 -8.8015 z M 0 18.8603 V 21.375 h 17.1 v -2.5147 z" />
        </symbol>
        <symbol id="timer" viewBox="0 0 24 24" fill="currentColor">
            <path transform="translate(2,0.5)"
                d="M 13.0666 0 H 6.5332 V 2.1333 H 13.0666 Z M 8.7111 13.8667 H 10.8889 V 7.4668 H 8.7111 Z M 17.4549 6.816 L 19.0011 5.3014 C 18.5329 4.7574 18.0211 4.2454 17.4658 3.7974 L 15.9195 5.312 C 14.2318 3.9893 12.1085 3.2 9.8 3.2 C 4.3882 3.2 0 7.4987 0 12.8001 C 0 18.1013 4.3774 22.4 9.8 22.4 C 15.2226 22.4 19.6 18.1013 19.6 12.8001 C 19.6 10.5388 18.7942 8.4587 17.4549 6.816 Z M 9.8 20.2667 C 5.586 20.2667 2.1778 16.928 2.1778 12.8001 C 2.1778 8.672 5.586 5.3334 9.8 5.3334 c 4.214 0 7.6222 3.3387 7.6222 7.4666 c 0 4.1279 -3.4082 7.4666 -7.6222 7.4666 z" />
        </symbol>
        <symbol id="hourglass" viewBox="0 0 24 24" stroke="currentColor">
            <path transform="translate(6,3)" d="m 0 0 h 12 l -12 18 h 12 z" fill="none" stroke-width="2.5" />
        </symbol>
        <symbol id="photo" viewBox="0 0 24 24" fill="currentColor">
            <!-- Photo icon by Bitcoindesign in MIT License via SVG Repo -->
            <path transform="translate(1.5,1.5)" fill-rule="evenodd" clip-rule="evenodd"
                d="M 1.5 0 C 0.6715 0 0 0.6715 0 1.5 V 19.5 C 0 20.3285 0.6715 21 1.5 21 H 19.5 C 20.3285 21 21 20.3285 21 19.5 V 1.5 C 21 0.6715 20.3285 0 19.5 0 H 1.5 Z M 6.75 9 C 7.9926 9 9 7.9926 9 6.75 C 9 5.5074 7.9926 4.5 6.75 4.5 C 5.5074 4.5 4.5 5.5074 4.5 6.75 C 4.5 7.9926 5.5074 9 6.75 9 Z M 3.7172 16.1025 L 6.114 12.2676 C 6.4077 11.7977 7.0923 11.7977 7.386 12.2676 L 9.3435 15.3996 L 12.4793 10.0928 C 12.7696 9.6015 13.4804 9.6015 13.7707 10.0928 L 17.3313 16.1184 C 17.6268 16.6183 17.2663 17.25 16.6857 17.25 H 9.5643 C 9.4909 17.25 9.4211 17.24 9.3557 17.2214 C 9.2903 17.24 9.2203 17.25 9.1469 17.25 H 4.3531 C 3.7641 17.25 3.405 16.602 3.7172 16.1025 Z" />
        </symbol>
        <symbol id="pip" viewBox="0 0 24 24" fill="currentColor">
            <path transform="translate(1.3,1.7)"
                d="M 20.5256 0 A 1.1371 1.0803 90 0 1 21.6059 1.1372 V 9.0972 H 18.6379 V 3.0134 H 2.833 V 17.4852 H 8.6423 V 20.4687 H 1.0803 A 1.1371 1.0803 90 0 1 0 19.3316 V 1.1372 A 1.1371 1.0803 90 0 1 1.0803 0 H 20.5256 Z M 20.5256 11.3715 A 1.1371 1.0803 90 0 1 21.6059 12.5087 V 19.3316 A 1.1371 1.0803 90 0 1 20.5256 20.4687 H 11.8832 A 1.1371 1.0803 90 0 1 10.8029 19.3316 V 12.5087 A 1.1371 1.0803 90 0 1 11.8832 11.3715 H 20.5256 Z" />
        </symbol>
        <symbol id="captions" viewBox="0 0 24 24" fill="currentColor">
            <path transform="translate(1.5,1.5)" style="stroke-width:1.00886583"
                d="M 2.332 0 C 1.0407 0 0 1.0406 0 2.332 V 18.6679 C 0 19.9595 1.0407 21 2.332 21 H 18.6679 C 19.9593 21 21 19.9595 21 18.6679 V 2.332 C 21 1.0406 19.9593 0 18.6679 0 Z M 7.749 6.8115 C 8.0928 6.8115 8.4306 6.8427 8.7627 6.9053 C 9.0987 6.9639 9.4326 7.0537 9.7647 7.1748 V 8.8857 C 9.4795 8.6904 9.1925 8.546 8.9032 8.4522 C 8.6181 8.3585 8.3213 8.3115 8.0127 8.3115 C 7.4268 8.3115 6.9697 8.4834 6.6415 8.8272 C 6.3174 9.1669 6.1553 9.6435 6.1553 10.2569 C 6.1553 10.87 6.3174 11.3487 6.6415 11.6924 C 6.9697 12.0322 7.4268 12.2022 8.0127 12.2022 C 8.3407 12.2022 8.6514 12.1533 8.9444 12.0556 C 9.2412 11.958 9.5146 11.8134 9.7647 11.622 V 13.3389 C 9.4365 13.4599 9.1026 13.5498 8.7627 13.6085 C 8.4267 13.6708 8.0889 13.7022 7.749 13.7022 C 6.5654 13.7022 5.6397 13.3994 4.9716 12.7939 C 4.3037 12.1845 3.9698 11.3388 3.9698 10.2569 C 3.9698 9.1747 4.3037 8.331 4.9716 7.7256 C 5.6397 7.1162 6.5654 6.8115 7.749 6.8115 Z M 14.874 6.8115 C 15.2178 6.8115 15.5556 6.8427 15.8877 6.9053 C 16.2237 6.9639 16.5576 7.0537 16.8897 7.1748 V 8.8857 C 16.6045 8.6904 16.3175 8.546 16.0282 8.4522 C 15.7431 8.3585 15.4462 8.3115 15.1377 8.3115 C 14.5518 8.3115 14.0947 8.4834 13.7665 8.8272 C 13.4424 9.1669 13.2803 9.6435 13.2803 10.2569 C 13.2803 10.87 13.4424 11.3487 13.7665 11.6924 C 14.0947 12.0322 14.5518 12.2022 15.1377 12.2022 C 15.4657 12.2022 15.7764 12.1533 16.0694 12.0556 C 16.3662 11.958 16.6396 11.8134 16.8897 11.622 V 13.3389 C 16.5615 13.4599 16.2276 13.5498 15.8877 13.6085 C 15.5517 13.6708 15.2139 13.7022 14.874 13.7022 C 13.6903 13.7022 12.7647 13.3994 12.0966 12.7939 C 11.4287 12.1845 11.0947 11.3388 11.0947 10.2569 C 11.0947 9.1747 11.4287 8.331 12.0966 7.7256 C 12.7647 7.1162 13.6903 6.8115 14.874 6.8115 Z" />
        </symbol>
        <symbol id="soundwave" viewBox="0 0 24 24" stroke="currentColor">
            <!-- Soundwave icon by Software Mansion in MIT License via SVG Repo -->
            <path transform="translate(3,2)"
                d="M 0 8.505 V 10.935 M 3.645 4.86 V 14.58 M 7.29 7.29 V 12.15 M 10.935 3.645 V 15.795 M 14.58 0 V 19.44 M 18.225 6.075 V 13.365 V 10.935"
                stroke-width="2" stroke-linecap="round" stroke-linejoin="round" />
        </symbol>
        <symbol id="language" viewBox="0 0 24 24" fill="currentColor">
            <!--!Font Awesome Free 6.5.1 by @fontawesome - https://fontawesome.com License - https://fontawesome.com/license/free Copyright 2023 Fonticons, Inc.-->
            <path d="M 3.8769 9.3565 l 0.3807 0.6642 c 0.3362 0.5872 0.887 1.0206 1.539 1.2069 L 8.1415 11.8959 c 0.6966 0.1985 1.1745 0.8343 1.1745 1.5593 v 1.616 c 0 0.4455 0.2511 0.8505 0.648 1.049 s 0.648 0.6035 0.648 1.049 v 1.5795 c 0 0.6318 0.6035 1.0895 1.211 0.9153 c 0.6521 -0.1863 1.1583 -0.7087 1.3244 -1.3689 l 0.1134 -0.4536 c 0.1701 -0.6845 0.6156 -1.2717 1.2271 -1.62 l 0.3281 -0.1863 c 0.6075 -0.3443 0.9801 -0.9923 0.9801 -1.6889 v -0.3362 c 0 -0.5143 -0.2066 -1.0085 -0.571 -1.373 l -0.158 -0.158 c -0.3645 -0.3645 -0.8586 -0.571 -1.373 -0.571 H 11.9485 c -0.4496 0 -0.8951 -0.1175 -1.2879 -0.3402 l -1.3973 -0.7978 c -0.1741 -0.1013 -0.3078 -0.2633 -0.3726 -0.4536 c -0.1296 -0.3888 0.0446 -0.81 0.4131 -0.9923 l 0.239 -0.1215 c 0.2673 -0.1337 0.5791 -0.158 0.8627 -0.0608 l 0.9396 0.3119 c 0.3321 0.1094 0.6966 -0.0162 0.887 -0.3038 c 0.1903 -0.2835 0.1701 -0.6601 -0.0486 -0.9234 l -0.5508 -0.6601 c -0.405 -0.486 -0.401 -1.1948 0.0121 -1.6726 l 0.6359 -0.7411 c 0.3564 -0.4172 0.4131 -1.0125 0.1418 -1.4864 l -0.0972 -0.1701 c -0.1418 -0.0081 -0.2795 -0.0121 -0.4212 -0.0121 C 8.1456 3.484 4.9582 5.9505 3.8769 9.3565 z M 20.332 11.908 c 0 -1.4904 -0.3888 -2.8917 -1.0692 -4.1108 L 18.226 8.2144 c -0.6359 0.2552 -0.9639 0.9639 -0.7493 1.6119 l 0.6845 2.0534 c 0.1418 0.4212 0.486 0.7411 0.9153 0.8465 l 1.1786 0.2957 c 0.0486 -0.3645 0.0729 -0.7371 0.0729 -1.1138 z M 1.54 11.908 a 10.368 10.368 90 1 1 20.736 0 A 10.368 10.368 90 1 1 1.54 11.908 z"/>
        
        </symbol>
        <symbol id="previous" viewBox="-2 -2 16 16" fill="currentColor">
            <path d="M 12 0 L 3.5 6 L 12 12 Z M 2 12 V 0 H 0 V 12 Z"/>
        </symbol>
        <symbol id="next" viewBox="-2 -2 16 16" fill="currentColor">
           <path d="M 0,12 8.5,6 0,0 Z M 10,0 v 12 h 2 V 0 Z"/>
        </symbol>
        <symbol id="rect" viewBox="0 0 24 24" stroke="currentColor">
            <rect x="0" y="0" width="24" height="24" fill="none" stroke-width="0.1"></rect>
        </symbol>


        
    </defs>
</svg>